PathFileType	4	(X/Y/Z)	C:\Users\°ÂÌØÂü\Desktop\20210112\bx_y_5_1802-Unnamed.trc
DataRate	CameraRate	NumFrames	NumMarkers	Units	OrigDataRate	OrigDataStartFrame	OrigNumFrames
50.00	50.00	       4	0	mm	50.00	1	       478
Frame#	Time	
		

1	0.000	-701.26526	-65.68451	1564.32397	-609.91260	-12.76723	1049.46838	-597.38080	212.70279	1065.09460	-604.97003	-9.87302	801.22314	-647.45734	274.80707	873.93408	-598.08472	206.02698	822.31915	-698.16455	270.21756	746.84143	-729.96240	247.88760	636.29279	-703.83301	79.16503	575.78241	-698.98627	139.40465	573.29980	-679.26416	15.86794	520.42456	-734.33502	241.93205	575.81812	-776.69080	253.00987	503.00452	-681.94049	200.78845	533.13464	-714.68610	78.51337	216.08366	-665.72791	-68.11104	162.43669	-709.67828	152.95642	216.85089	-624.90399	-79.89318	158.83746	-771.12518	222.19655	204.64868	-882.73486	295.96039	144.46976	-672.15454	55.72995	157.90474	-601.64917	17.39585	166.41418	-560.29932	-45.42361	162.93698	-674.31683	172.64673	157.75572	-594.67212	225.41342	173.90697	-666.98242	299.64819	159.40517	-629.89532	307.98349	161.51360	-562.45697	264.48026	165.90935	-528.08679	304.23312	146.60699	-704.01520	120.79301	1853.29041	-613.29163	103.31304	1435.60034	-713.26367	285.21686	1541.33813	-517.98950	-72.65875	142.46167	-795.31726	171.80823	183.98654	-766.93347	-3.00337	205.26726	-792.33801	59.51743	174.99855	-809.77972	95.69342	1046.11560	-776.78986	-33.50790	487.34952	-875.97748	-78.88188	141.21204				-704.43988	-53.61254	705.56244	-716.14746	-29.24123	615.89453	-730.80658	-25.52232	566.15558	-664.54297	-70.59056	853.54474	
2	0.020	-701.27124	-65.69307	1564.34229	-610.26221	-12.86736	1049.57141	-597.29553	212.68092	1065.21643	-605.17035	-9.93251	801.39594	-647.84985	274.96432	873.86707	-598.10834	206.03171	822.50427	-698.11176	270.25046	746.94629	-729.88184	247.79019	636.30481	-703.42456	79.13245	575.97168	-698.48755	139.37782	573.35223	-679.37128	16.00827	520.33374	-734.13971	241.91136	575.86908	-776.48499	252.80048	502.78445	-681.84021	200.79228	533.37457	-714.68610	78.51337	216.08366	-665.73688	-68.25791	162.28230	-709.81854	152.78996	216.94951	-624.90399	-79.89318	158.83746	-771.01990	222.37437	204.48254	-882.62225	296.06238	144.51773	-672.04614	55.56934	157.92505	-601.70471	17.42086	166.42670	-560.32019	-45.33093	163.12259	-674.31683	172.64673	157.75572	-594.56067	225.14441	174.09520	-667.03516	299.64792	159.48497	-629.78754	307.98346	161.56404	-562.41156	264.47165	165.96828	-527.99097	304.16925	146.54407	-703.49249	120.95833	1853.26563	-612.92694	103.23049	1435.63428	-713.10272	285.18097	1541.36804	-517.80859	-72.88712	142.61224	-795.34167	171.84131	184.10518	-766.94366	-3.02525	205.31343	-792.46283	59.42215	174.88736	-809.76605	95.67037	1046.19690	-776.89899	-33.46773	487.37109	-875.93359	-78.96604	141.13327				-704.70245	-53.71409	705.53766	-715.99933	-29.53005	616.13275	-730.68207	-25.47916	566.29645	-665.07092	-70.57744	853.51453	
3	0.040	-701.15948	-65.75596	1564.44531	-610.61285	-13.22804	1049.61292	-597.38440	212.62787	1065.27136	-605.28583	-10.05128	801.74994	-647.91339	275.03406	874.06244	-598.07611	205.97415	822.82062	-698.26575	270.17331	746.73535	-729.81873	247.69615	636.42480	-703.41547	79.08058	576.19147	-698.17572	139.10167	573.70538	-679.32513	15.66599	520.36456	-733.90021	241.88803	576.06842	-775.95990	252.68570	502.83685	-681.53650	200.64555	533.27417	-714.56921	78.40842	216.20364	-665.84668	-68.15646	162.21916	-709.76282	152.95616	216.74971	-624.90570	-79.90700	158.67540	-771.05658	222.26196	204.72650	-882.61194	296.15863	144.60854	-672.08832	55.43510	158.32323	-601.57312	17.39826	166.53839	-560.26141	-45.35754	163.26428	-674.31683	172.64673	157.75572	-594.66412	225.23354	173.85455	-667.05750	299.60004	159.45673	-629.98389	307.99951	161.42839	-562.39819	264.39532	165.91594	-528.14819	304.43069	146.55284	-702.61932	121.08551	1853.45166	-612.34949	103.04266	1435.81970	-712.40759	285.20135	1541.36633	-518.02209	-72.53428	142.59947	-795.36023	171.87659	184.04434	-767.13849	-3.21310	205.09595	-792.46283	59.42215	174.88736	-810.17596	95.80994	1046.37366	-776.97998	-33.43301	487.32053	-875.97400	-78.82437	141.25412				-704.91553	-53.74517	705.76221	-716.16339	-29.61000	616.28168	-731.01105	-25.57773	566.22119	-665.44385	-70.83457	853.80591	
4	0.060	-700.98468	-65.82093	1564.56763	-610.91412	-13.36941	1049.60815	-597.50330	212.53149	1065.62732	-605.28583	-10.05128	801.74994	-648.22125	275.18341	873.98535	-598.25165	206.22002	823.00531	-698.22937	270.20026	746.95148	-729.78296	247.69054	636.51208	-702.98828	79.01457	576.07361	-696.49799	139.38162	573.62054	-679.24194	15.32139	520.24652	-733.46271	242.04036	576.27356	-775.81274	252.74030	502.99628	-681.34753	200.60257	533.21661	-714.48608	78.38378	216.32738	-665.79218	-68.30241	162.18025	-710.33228	152.56265	217.01372	-625.02002	-79.98907	158.82915	-771.04694	222.23576	204.52290	-882.67389	296.10397	144.50414	-671.97119	55.36737	158.17653	-601.82715	17.54604	166.49249	-560.48962	-45.47644	163.24237	-674.31683	172.64673	157.75572	-594.86230	225.07195	173.77115	-667.12073	299.54166	159.63470	-629.83679	308.04099	161.69180	-562.30792	264.41656	165.92221	-528.14606	304.27264	146.43333	-701.65576	121.18159	1853.52783	-612.17859	102.95438	1435.74768	-711.88324	285.40817	1541.58875	-518.02209	-72.53428	142.59947	-795.24969	171.79642	184.13521	-767.13525	-3.07683	204.98349	-792.16797	59.29769	174.85728	-810.28528	95.88264	1046.28540	-776.91516	-33.34433	487.54218	-875.99298	-78.87768	141.19183				-705.13617	-53.80577	705.75116	-716.51483	-29.43692	616.10492	-731.01105	-25.57773	566.22119	-665.95752	-70.83833	853.82300	
